<svg width="58" height="58" viewBox="0 0.5 58 58" fill="none" xmlns="http://www.w3.org/2000/svg">
<path d="M34.615 2.24353C35.0893 2.13802 35.5813 2.14062 36.0544 2.25134C36.5272 2.36202 36.9694 2.5775 37.3474 2.8822C37.7224 3.18194 38.0253 3.56276 38.2332 3.99548C38.441 4.42839 38.5491 4.90295 38.5486 5.38318V7.82947H39.6873L39.988 7.84509C40.6845 7.91484 41.3393 8.22282 41.8386 8.72205C42.4092 9.29263 42.7304 10.0665 42.7312 10.8734V35.7777C42.7312 36.0784 42.6117 36.3668 42.3992 36.5795C42.1866 36.792 41.898 36.9114 41.5974 36.9115C41.2968 36.9115 41.0083 36.792 40.7957 36.5795C40.583 36.3668 40.4626 36.0785 40.4626 35.7777V10.8734C40.4626 10.6679 40.3813 10.471 40.2361 10.3256C40.0906 10.1801 39.893 10.098 39.6873 10.098H10.1267L9.97534 10.1156C9.82667 10.1475 9.68886 10.2214 9.57983 10.3304C9.43458 10.4757 9.3514 10.6719 9.34741 10.8773V52.9564C9.34741 53.1622 9.42945 53.3597 9.57495 53.5052C9.72032 53.6505 9.91729 53.7327 10.1228 53.7328H32.7068C33.0075 53.7328 33.2959 53.8522 33.5085 54.0648C33.7211 54.2775 33.8406 54.5659 33.8406 54.8666C33.8405 55.1672 33.7211 55.4557 33.5085 55.6683C33.2959 55.8809 33.0075 56.0004 32.7068 56.0004H10.1228C9.31594 55.9995 8.54198 55.6783 7.97144 55.1078C7.40101 54.5372 7.08064 53.7633 7.07983 52.9564V10.8724C7.08013 10.1208 7.35886 9.39576 7.86304 8.83826C8.36255 8.28601 9.04801 7.93773 9.78784 7.85779L34.614 2.24353H34.615ZM35.5388 4.4613C35.3973 4.42815 35.25 4.42586 35.1082 4.4574L35.1091 4.45837L20.2039 7.82947H36.281V5.38416C36.2809 5.24328 36.2485 5.10381 36.1873 4.97693C36.126 4.8502 36.0366 4.73845 35.9265 4.65076H35.9255C35.8124 4.55939 35.6804 4.49449 35.5388 4.4613Z" fill="black" stroke="black" stroke-width="0.358091"/>
<path d="M36.3639 26.918C36.3639 24.6517 35.6919 22.4362 34.4327 20.5518C33.1736 18.6674 31.384 17.1987 29.2901 16.3314C27.1963 15.4641 24.8923 15.2371 22.6695 15.6793C20.4467 16.1214 18.4049 17.2128 16.8024 18.8153C15.1998 20.4179 14.1084 22.4597 13.6663 24.6825C13.2242 26.9053 13.4511 29.2093 14.3184 31.3031C15.1857 33.397 16.6544 35.1866 18.5388 36.4457C20.4232 37.7049 22.6387 38.3769 24.905 38.3769C27.9431 38.3736 30.8558 37.1653 33.0041 35.0171C35.1523 32.8688 36.3606 29.9561 36.3639 26.918ZM20.2794 18.5712C18.992 20.8263 18.2873 23.367 18.2293 25.9631H15.4046C15.5608 24.4292 16.0856 22.9558 16.9345 21.6686C17.7833 20.3815 18.931 19.3188 20.2794 18.5712ZM15.4046 27.8729H18.2293C18.2871 30.4694 18.9918 33.0104 20.2794 35.2658C18.9308 34.5181 17.7831 33.4553 16.9343 32.1679C16.0854 30.8806 15.5606 29.407 15.4046 27.8729ZM23.9511 36.2666C21.9448 35.4205 20.353 31.9848 20.1372 27.8729H23.9501L23.9511 36.2666ZM23.9511 25.9631H20.1372C20.353 21.8513 21.9448 18.4155 23.9501 17.5704L23.9511 25.9631ZM34.4064 25.9631H31.5808C31.523 23.367 30.8187 20.8264 29.5316 18.5712C30.88 19.3188 32.0277 20.3815 32.8765 21.6686C33.7254 22.9558 34.2502 24.4292 34.4064 25.9631ZM25.8599 17.5704C27.8652 18.4155 29.4571 21.8513 29.6738 25.9641H25.859L25.8599 17.5704ZM25.8599 36.2656V27.8729H29.6738C29.4571 31.9848 27.8662 35.4196 25.8599 36.2656ZM29.5316 35.2658C30.8189 33.0103 31.5232 30.4693 31.5808 27.8729H34.4064C34.2504 29.407 33.7256 30.8806 32.8767 32.1679C32.0279 33.4553 30.8802 34.5181 29.5316 35.2658ZM31.0938 44.3623C31.0938 44.109 30.9932 43.8661 30.8141 43.6871C30.635 43.508 30.3921 43.4074 30.1389 43.4074H17.2667C17.0134 43.4074 16.7706 43.508 16.5915 43.6871C16.4124 43.8661 16.3118 44.109 16.3118 44.3623C16.3118 44.6155 16.4124 44.8584 16.5915 45.0375C16.7706 45.2166 17.0134 45.3172 17.2667 45.3172H30.1389C30.3921 45.3172 30.635 45.2166 30.8141 45.0375C30.9932 44.8584 31.0938 44.6155 31.0938 44.3623ZM13.4461 47.227C13.1929 47.227 12.95 47.3276 12.7709 47.5067C12.5918 47.6858 12.4912 47.9287 12.4912 48.1819C12.4912 48.4352 12.5918 48.6781 12.7709 48.8571C12.95 49.0362 13.1929 49.1368 13.4461 49.1368H29.8133C30.0665 49.1368 30.3094 49.0362 30.4885 48.8571C30.6675 48.6781 30.7682 48.4352 30.7682 48.1819C30.7682 47.9287 30.6675 47.6858 30.4885 47.5067C30.3094 47.3276 30.0665 47.227 29.8133 47.227H13.4461ZM41.233 38.6328C39.5332 38.6328 37.8716 39.1369 36.4583 40.0812C35.045 41.0255 33.9435 42.3678 33.293 43.9382C32.6425 45.5085 32.4724 47.2365 32.804 48.9036C33.1356 50.5708 33.9541 52.1021 35.156 53.304C36.3579 54.5059 37.8893 55.3244 39.5564 55.656C41.2235 55.9877 42.9515 55.8175 44.5218 55.167C46.0922 54.5165 47.4345 53.415 48.3788 52.0017C49.3231 50.5884 49.8272 48.9268 49.8272 47.227C49.8246 44.9485 48.9184 42.764 47.3072 41.1528C45.696 39.5416 43.5115 38.6354 41.233 38.6328ZM41.233 53.9114C39.911 53.9114 38.6186 53.5193 37.5194 52.7848C36.4201 52.0504 35.5634 51.0064 35.0575 49.785C34.5515 48.5636 34.4192 47.2196 34.6771 45.923C34.935 44.6263 35.5716 43.4353 36.5064 42.5004C37.4413 41.5656 38.6323 40.929 39.9289 40.6711C41.2256 40.4132 42.5696 40.5455 43.791 41.0515C45.0124 41.5574 46.0564 42.4141 46.7908 43.5134C47.5253 44.6126 47.9174 45.905 47.9174 47.227C47.9148 48.999 47.2098 50.6978 45.9568 51.9508C44.7037 53.2038 43.005 53.9088 41.233 53.9114Z" fill="#227ADE"/>
<path d="M43.8993 44.3243L40.1188 48.1058L38.5652 46.5521C38.3851 46.3782 38.1439 46.2819 37.8935 46.2841C37.6431 46.2863 37.4036 46.3867 37.2266 46.5638C37.0495 46.7408 36.9491 46.9803 36.9469 47.2307C36.9448 47.4811 37.041 47.7223 37.215 47.9024L39.4437 50.1302C39.6228 50.3092 39.8656 50.4098 40.1188 50.4098C40.372 50.4098 40.6149 50.3092 40.794 50.1302L45.2496 45.6736C45.3408 45.5855 45.4135 45.4802 45.4635 45.3637C45.5136 45.2472 45.5399 45.1219 45.541 44.9951C45.5421 44.8683 45.518 44.7425 45.47 44.6252C45.422 44.5078 45.351 44.4012 45.2614 44.3115C45.1717 44.2219 45.0651 44.151 44.9478 44.103C44.8304 44.055 44.7047 44.0308 44.5779 44.0319C44.4511 44.033 44.3258 44.0593 44.2093 44.1094C44.0928 44.1594 43.9874 44.2331 43.8993 44.3243Z" fill="#227ADE"/>
</svg>
