<svg width="58" height="58" viewBox="0 0 58 58" fill="none" xmlns="http://www.w3.org/2000/svg">
<g clip-path="url(#clip0_59_320)">
<path d="M56.7408 26.6833L46.1916 17.6746C46.2039 17.613 46.2162 17.5514 46.2286 17.4774V5.69579C46.2162 4.99333 45.6617 4.42643 44.9592 4.40178H39.0684C38.3906 4.40178 37.836 5.00565 37.836 5.69579V10.576L29.3942 3.3789C28.9382 2.98454 28.2604 2.98454 27.7921 3.3789L0.445373 26.671C-0.0845536 27.1024 -0.146173 27.8788 0.285163 28.4087C0.716498 28.9386 1.4929 29.0002 2.02283 28.5689L2.04748 28.5443L28.5931 5.94227L38.0948 14.0391L43.7761 18.87L55.1511 28.5566C55.6687 29.0002 56.4451 28.9386 56.8887 28.421C57.3201 27.9034 57.2584 27.127 56.7408 26.6833ZM43.7515 15.5919L40.3008 12.6834V6.87888H43.7515V15.5919Z" fill="#227ADE"/>
<path d="M51.3058 29.1728L47.8428 26.2151L29.394 10.4529C28.938 10.0585 28.2602 10.0585 27.7919 10.4529L9.34305 26.2151L5.88004 29.1728C5.36244 29.6165 5.30082 30.3929 5.74448 30.9105C6.17581 31.4281 6.93989 31.4897 7.44517 31.0584L7.45749 31.0461L8.99798 29.7151V52.8224C9.0103 53.5125 9.5772 54.0794 10.2673 54.0917H46.9062C47.5964 54.0794 48.1633 53.5248 48.1756 52.8224V29.7151L49.7161 31.0461C49.9379 31.2309 50.209 31.3418 50.5048 31.3418C50.8622 31.3418 51.2073 31.1816 51.4414 30.9105C51.8974 30.3806 51.8234 29.6042 51.3058 29.1728ZM33.5225 51.6146H23.6634V38.3048H33.5225V51.6146ZM35.9873 51.6146V37.1094C35.9873 36.4316 35.482 35.8401 34.8042 35.8401H22.3817C21.7039 35.8401 21.1986 36.4316 21.1986 37.1094V51.6146H11.4628V27.6077L28.5929 13.0162L45.7231 27.6077V51.6146H35.9873Z" fill="black"/>
</g>
<defs>
<clipPath id="clip0_59_320">
<rect width="57.175" height="57.175" fill="white"/>
</clipPath>
</defs>
</svg>
