<svg width="58" height="58" viewBox="0 0 58 58" fill="none" xmlns="http://www.w3.org/2000/svg">
<g clip-path="url(#clip0_59_324)">
<path d="M1.85861 47.5917H55.9978V49.9456H1.85861V47.5917ZM55.1781 10.5103C51.2462 8.21871 46.7785 9.43602 43.7235 10.8606L34.6166 15.1072L18.9539 7.22949L9.6263 7.63024L22.56 20.7423L14.3173 24.6578L5.74157 21.3941L-0.000244141 24.0714L5.18876 30.515C4.64055 31.169 4.14376 32.0899 4.59476 33.0571C5.18382 34.3202 6.92487 34.9568 9.78071 34.9567C10.3664 34.9567 10.9988 34.9299 11.6779 34.8763C14.8128 34.6286 18.2116 33.8284 20.3368 32.8375L52.8905 17.6574C55.7022 16.3462 57.1027 14.9694 57.1722 13.4481C57.2082 12.6591 56.8915 11.5086 55.1781 10.5103ZM51.8955 15.524L19.3419 30.7041C17.5313 31.5485 14.5587 32.2559 11.7689 32.5064C8.91743 32.7624 7.39282 32.441 6.88462 32.168C6.98925 32.0248 7.18462 31.7998 7.54512 31.4825L8.39063 30.7383L3.71724 24.935L5.83408 23.9478L14.419 27.2153L26.5614 21.4473L15.0274 9.75415L18.443 9.60738L34.5775 17.7223L44.718 12.9938C48.4215 11.2669 51.5418 11.1157 53.9927 12.5438L53.9928 12.544C54.6103 12.9038 54.8262 13.2176 54.8205 13.3408C54.8203 13.3492 54.7496 14.1933 51.8955 15.524Z" fill="black"/>
<path d="M1.85864 47.5916H55.9979V49.9455H1.85864V47.5916Z" fill="#227ADE"/>
</g>
<defs>
<clipPath id="clip0_59_324">
<rect width="57.175" height="57.175" fill="white"/>
</clipPath>
</defs>
</svg>
