<svg width="58" height="58" viewBox="0 0 58 58" fill="none" xmlns="http://www.w3.org/2000/svg">
<g clip-path="url(#clip0_284_1371)">
<path d="M54.5762 31.1865C53.7965 31.1865 53.2768 31.7063 53.2768 32.4859V49.3786C53.2768 50.1582 52.757 50.678 51.9774 50.678H5.19774C4.41806 50.678 3.89834 50.1581 3.89834 49.3786V32.4859C3.89834 31.7062 3.37852 31.1865 2.59895 31.1865C1.81938 31.1865 1.29956 31.7063 1.29956 32.4859V49.3786C1.29956 51.5876 2.98879 53.2768 5.19785 53.2768H51.9774C54.1865 53.2768 55.8757 51.5876 55.8757 49.3786V32.4859C55.8757 31.7062 55.3559 31.1865 54.5762 31.1865Z" fill="black"/>
<path d="M53.2767 12.9943H3.89829C1.68923 12.9943 0 14.6835 0 16.8926V25.209C0 27.0281 1.29939 28.5874 2.98873 28.9773L23.3898 33.5252V37.6834C23.3898 38.4631 23.9097 38.9828 24.6892 38.9828H32.4858C33.2655 38.9828 33.7852 38.463 33.7852 37.6834V33.5252L54.1863 28.9773C55.8756 28.5874 57.175 27.0281 57.175 25.2088V16.8924C57.175 14.6835 55.4858 12.9943 53.2767 12.9943ZM31.1864 36.384H25.9887V31.1863H31.1864V36.384ZM54.5761 25.2088C54.5761 25.8585 54.1863 26.3784 53.5366 26.5082L33.7852 30.9263V29.8868C33.7852 29.1071 33.2654 28.5874 32.4858 28.5874H24.6892C23.9095 28.5874 23.3898 29.1072 23.3898 29.8868V30.9263L3.63843 26.5083C2.98873 26.3784 2.59889 25.8587 2.59889 25.209V16.8926C2.59889 16.1129 3.11872 15.5932 3.89829 15.5932H53.2767C54.0564 15.5932 54.5761 16.113 54.5761 16.8926V25.2088ZM35.0847 3.89819H22.0903C19.8813 3.89819 18.192 5.58742 18.192 7.79648V9.09587C18.192 9.87555 18.7119 10.3953 19.4914 10.3953C20.271 10.3953 20.7908 9.87544 20.7908 9.09587V7.79648C20.7908 7.0168 21.3106 6.49709 22.0902 6.49709H35.0846C35.8643 6.49709 36.384 7.01691 36.384 7.79648V9.09587C36.384 9.87555 36.9038 10.3953 37.6834 10.3953C38.463 10.3953 38.9827 9.87544 38.9827 9.09587V7.79648C38.983 5.58742 37.2937 3.89819 35.0847 3.89819Z" fill="#227ADE"/>
</g>
<defs>
<clipPath id="clip0_284_1371">
<rect width="57.175" height="57.175" fill="white"/>
</clipPath>
</defs>
</svg>
