<svg width="58" height="58" viewBox="0 0 58 58" fill="none" xmlns="http://www.w3.org/2000/svg">
<path fill-rule="evenodd" clip-rule="evenodd" d="M7.58185 10.2243C6.53526 10.2243 5.53153 10.64 4.79148 11.3801C4.05143 12.1202 3.63567 13.1239 3.63567 14.1705V43.1091C3.63567 44.1557 4.05143 45.1594 4.79148 45.8995C5.53153 46.6395 6.53526 47.0553 7.58185 47.0553H49.6744C50.721 47.0553 51.7247 46.6395 52.4648 45.8995C53.2048 45.1594 53.6206 44.1557 53.6206 43.1091V14.1705C53.6206 13.1239 53.2048 12.1202 52.4648 11.3801C51.7247 10.64 50.721 10.2243 49.6744 10.2243H7.58185ZM1.00488 14.1705C1.00488 12.4262 1.69781 10.7533 2.93123 9.51985C4.16465 8.28643 5.83753 7.59351 7.58185 7.59351H49.6744C51.4187 7.59351 53.0916 8.28643 54.325 9.51985C55.5585 10.7533 56.2514 12.4262 56.2514 14.1705V43.1091C56.2514 43.9728 56.0813 44.8281 55.7507 45.626C55.4202 46.424 54.9358 47.149 54.325 47.7597C53.7143 48.3705 52.9893 48.8549 52.1913 49.1854C51.3934 49.516 50.5381 49.6861 49.6744 49.6861H7.58185C6.71815 49.6861 5.86291 49.516 5.06495 49.1854C4.267 48.8549 3.54196 48.3705 2.93123 47.7597C2.3205 47.149 1.83605 46.424 1.50552 45.626C1.175 44.8281 1.00488 43.9728 1.00488 43.1091V14.1705Z" fill="black"/>
<path fill-rule="evenodd" clip-rule="evenodd" d="M40.467 23.378H32.5746V20.7472H40.467V23.378ZM48.3593 32.5858H32.5746V29.955H48.3593V32.5858ZM18.1053 20.7472C17.5871 20.7472 17.0739 20.8493 16.5951 21.0476C16.1164 21.2459 15.6814 21.5366 15.3149 21.903C14.9485 22.2695 14.6578 22.7045 14.4595 23.1833C14.2612 23.6621 14.1591 24.1752 14.1591 24.6934C14.1591 25.2116 14.2612 25.7248 14.4595 26.2036C14.6578 26.6823 14.9485 27.1174 15.3149 27.4838C15.6814 27.8502 16.1164 28.1409 16.5951 28.3392C17.0739 28.5375 17.5871 28.6396 18.1053 28.6396C19.1519 28.6396 20.1556 28.2238 20.8957 27.4838C21.6357 26.7437 22.0515 25.74 22.0515 24.6934C22.0515 23.6468 21.6357 22.6431 20.8957 21.903C20.1556 21.163 19.1519 20.7472 18.1053 20.7472ZM11.5283 24.6934C11.5283 22.9491 12.2212 21.2762 13.4547 20.0428C14.6881 18.8094 16.361 18.1165 18.1053 18.1165C19.8496 18.1165 21.5225 18.8094 22.7559 20.0428C23.9893 21.2762 24.6822 22.9491 24.6822 24.6934C24.6822 26.4377 23.9893 28.1106 22.7559 29.344C21.5225 30.5775 19.8496 31.2704 18.1053 31.2704C16.361 31.2704 14.6881 30.5775 13.4547 29.344C12.2212 28.1106 11.5283 26.4377 11.5283 24.6934Z" fill="#227ADE"/>
<path fill-rule="evenodd" clip-rule="evenodd" d="M18.105 33.9013C16.3606 33.9013 14.6878 34.5942 13.4544 35.8276C12.2209 37.0611 11.528 38.7339 11.528 40.4783H8.89722C8.89722 38.0362 9.86732 35.6942 11.5941 33.9674C13.3209 32.2406 15.6629 31.2705 18.105 31.2705C20.547 31.2705 22.889 32.2406 24.6158 33.9674C26.3426 35.6942 27.3127 38.0362 27.3127 40.4783H24.6819C24.6819 38.7339 23.989 37.0611 22.7556 35.8276C21.5222 34.5942 19.8493 33.9013 18.105 33.9013Z" fill="black"/>
</svg>
