<svg width="58" height="58" viewBox="0 0 58 58" fill="none" xmlns="http://www.w3.org/2000/svg">
<g clip-path="url(#clip0_284_1380)">
<path d="M49.8326 38.134L32.7039 40.9808C31.6012 39.909 30.124 39.3094 28.5861 39.3094C27.0483 39.3094 25.5711 39.909 24.4683 40.9808L7.34204 38.134C7.14274 38.1007 6.93824 38.1186 6.74778 38.1861C6.55732 38.2536 6.38717 38.3685 6.25334 38.5199C6.00558 38.8034 4.7644 40.4519 4.7644 45.2642C4.7644 50.0764 6.0032 51.7249 6.25334 52.006C6.36496 52.1331 6.50236 52.2349 6.6564 52.3048C6.81043 52.3746 6.97757 52.4108 7.1467 52.411C7.21201 52.4082 7.27718 52.4026 7.34204 52.3944L23.8227 49.6547V55.9845C23.8229 56.1731 23.8678 56.359 23.9539 56.5269C24.0399 56.6948 24.1646 56.8398 24.3177 56.9501C24.4707 57.0603 24.6478 57.1326 24.8343 57.1611C25.0207 57.1895 25.2113 57.1733 25.3903 57.1137L28.5873 56.0488L31.7844 57.1137C31.9057 57.1544 32.0328 57.1753 32.1608 57.1756C32.4767 57.1756 32.7796 57.0501 33.003 56.8267C33.2264 56.6034 33.3519 56.3004 33.3519 55.9845V49.6547L49.8326 52.3944C49.8975 52.4026 49.9626 52.4082 50.028 52.411C50.1971 52.4108 50.3642 52.3746 50.5183 52.3048C50.6723 52.2349 50.8097 52.1331 50.9213 52.006C51.1691 51.7249 52.4102 50.0764 52.4102 45.2642C52.4102 40.4519 51.1715 38.8034 50.9213 38.5223C50.7877 38.3705 50.6177 38.2551 50.4272 38.1872C50.2368 38.1193 50.0321 38.1009 49.8326 38.134ZM28.5873 41.6907C29.2941 41.6907 29.985 41.9003 30.5726 42.293C31.1603 42.6856 31.6183 43.2437 31.8888 43.8967C32.1592 44.5496 32.23 45.2681 32.0921 45.9613C31.9542 46.6545 31.6139 47.2912 31.1141 47.791C30.6144 48.2907 29.9776 48.6311 29.2845 48.7689C28.5913 48.9068 27.8728 48.8361 27.2198 48.5656C26.5669 48.2951 26.0088 47.8371 25.6161 47.2495C25.2235 46.6618 25.0139 45.9709 25.0139 45.2642C25.0139 44.3164 25.3904 43.4075 26.0605 42.7374C26.7307 42.0672 27.6396 41.6907 28.5873 41.6907ZM7.1467 45.2642C7.08055 43.6912 7.29844 42.1192 7.78992 40.6235L23.0366 43.1558C22.4994 44.51 22.4994 46.0183 23.0366 47.3725L7.79468 49.9049C7.30159 48.4095 7.08209 46.8374 7.1467 45.2642ZM28.9637 53.6641C28.7194 53.5827 28.4553 53.5827 28.2109 53.6641L26.205 54.3312V50.7148C26.9553 51.047 27.7668 51.2187 28.5873 51.2187C29.4079 51.2187 30.2193 51.047 30.9696 50.7148V54.3312L28.9637 53.6641ZM49.3847 49.9049L34.1381 47.3725C34.6753 46.0183 34.6753 44.51 34.1381 43.1558L49.38 40.6235C49.8731 42.1189 50.0926 43.6909 50.028 45.2642C50.0941 46.8371 49.8762 48.4092 49.3847 49.9049Z" fill="#227ADE"/>
<path d="M56.4173 10.8013L29.0234 0.0809815C28.7446 -0.0279704 28.435 -0.0279704 28.1562 0.0809815L0.757452 10.8013C0.533763 10.8883 0.341571 11.0408 0.206061 11.2389C0.0705521 11.437 -0.00195312 11.6714 -0.00195312 11.9114C-0.00195312 12.1515 0.0705521 12.3859 0.206061 12.584C0.341571 12.7821 0.533763 12.9346 0.757452 13.0216L4.76447 14.5891V27.2034L2.44412 34.1668C2.37377 34.3766 2.36325 34.6019 2.41375 34.8173C2.46424 35.0327 2.57375 35.2299 2.72999 35.3866L5.11228 37.7688C5.33566 37.9921 5.63857 38.1176 5.95442 38.1176C6.27027 38.1176 6.57319 37.9921 6.79656 37.7688L9.17886 35.3866C9.33551 35.2301 9.44546 35.0331 9.49638 34.8177C9.5473 34.6022 9.53716 34.3768 9.46711 34.1668L7.14676 27.2034V15.5206L9.52905 16.4545V28.5875C9.52924 28.8374 9.60802 29.0809 9.75424 29.2835C9.90046 29.4862 10.1067 29.6377 10.3438 29.7167L28.211 35.6724C28.4553 35.7538 28.7195 35.7538 28.9638 35.6724L46.831 29.7167C47.0681 29.6377 47.2743 29.4862 47.4205 29.2835C47.5668 29.0809 47.6455 28.8374 47.6457 28.5875V16.4545L56.4173 13.0216C56.641 12.9346 56.8332 12.7821 56.9687 12.584C57.1042 12.3859 57.1767 12.1515 57.1767 11.9114C57.1767 11.6714 57.1042 11.437 56.9687 11.2389C56.8332 11.0408 56.641 10.8883 56.4173 10.8013ZM5.95561 35.2412L4.93599 34.2216L5.95561 31.1627L6.97524 34.2216L5.95561 35.2412ZM45.2634 27.7299L28.5874 33.2878L11.9113 27.7299V17.386L28.1538 23.7419C28.4333 23.8515 28.7439 23.8515 29.0234 23.7419L45.2634 17.386V27.7299ZM28.5874 21.3525L11.18 14.5391L26.6816 13.2646C26.8925 13.5773 27.176 13.8343 27.5079 14.0135C27.8398 14.1928 28.2102 14.2889 28.5874 14.2937C29.0147 14.2975 29.4351 14.1862 29.8046 13.9717C30.174 13.7571 30.479 13.4471 30.6876 13.0742C30.8961 12.7013 31.0005 12.2791 30.9898 11.852C30.9791 11.4248 30.8538 11.0084 30.6269 10.6464C30.3999 10.2843 30.0798 9.98999 29.7001 9.79416C29.3203 9.59834 28.8949 9.50826 28.4683 9.53336C28.0418 9.55845 27.6299 9.6978 27.2757 9.93681C26.9215 10.1758 26.6381 10.5057 26.4552 10.8918L6.13429 12.5666L4.45715 11.9114L28.5874 2.47042L52.7153 11.9114L28.5874 21.3525Z" fill="black"/>
</g>
<defs>
<clipPath id="clip0_284_1380">
<rect width="57.175" height="57.175" fill="white"/>
</clipPath>
</defs>
</svg>
