<svg width="58" height="52" viewBox="-8 0 58 52" fill="none" xmlns="http://www.w3.org/2000/svg">
<path d="M42 5.50875C42 2.47 39.555 0 36.5469 0H5.45308C2.44504 0 0 2.47 0 5.50875V46.4912C0 49.53 2.44504 52 5.45308 52H36.5469C39.555 52 42 49.53 42 46.4912V5.50875ZM39.4665 46.4912C39.4665 48.1162 38.1555 49.4406 36.5469 49.4406H5.45308C3.8445 49.4406 2.53351 48.1162 2.53351 46.4912V5.50875C2.53351 3.88375 3.8445 2.55938 5.45308 2.55938H36.5469C38.1555 2.55938 39.4665 3.88375 39.4665 5.50875V46.4912Z" fill="#333333"/>
<path d="M21 7C12.7325 7 6 13.5428 6 21.5873C6 29.6319 12.7241 36.1828 21 36.1828C29.2675 36.1828 36 29.64 36 21.5873C36 13.5509 29.2675 7 21 7ZM33.297 20.3129H28.0161C27.866 16.6437 27.0567 12.9908 25.6468 10.4419C29.7848 12.0816 32.8131 15.8319 33.297 20.3129ZM21 33.6338C19.2647 33.6338 16.8788 29.575 16.6034 22.878H25.3882C25.1212 29.5669 22.7353 33.6338 21 33.6338ZM16.6118 20.3129C16.8871 13.6158 19.2647 9.55704 21.0083 9.55704C22.7436 9.55704 25.1296 13.6158 25.3966 20.3129H16.6118ZM16.3532 10.4419C14.9433 12.9908 14.134 16.6437 13.9839 20.3129H8.703C9.18687 15.8319 12.2152 12.0816 16.3532 10.4419ZM8.703 22.8699H13.9839C14.134 26.5391 14.9433 30.192 16.3532 32.7409C12.2152 31.1011 9.18687 27.3508 8.703 22.8699ZM25.6468 32.7409C27.0567 30.192 27.866 26.5391 28.0161 22.8699H33.297C32.8131 27.3508 29.7848 31.1011 25.6468 32.7409ZM11.406 41.443H30.594V44H11.406V41.443Z" fill="#227ADE"/>
</svg>
