<svg width="58" height="52" viewBox="-6 0 58 52" fill="none" xmlns="http://www.w3.org/2000/svg">
<path fill-rule="evenodd" clip-rule="evenodd" d="M0.116211 4.17828C0.116211 1.86948 1.98569 0 4.29449 0H30.558C32.8668 0 34.7363 1.86948 34.7363 4.17828V22.0852C34.7363 22.5601 34.5476 23.0156 34.2118 23.3514C33.876 23.6872 33.4205 23.8759 32.9456 23.8759C32.4707 23.8759 32.0152 23.6872 31.6794 23.3514C31.3435 23.0156 31.1549 22.5601 31.1549 22.0852V4.17828C31.1549 4.01998 31.092 3.86815 30.9801 3.75621C30.8681 3.64427 30.7163 3.58139 30.558 3.58139H4.29449C4.13619 3.58139 3.98436 3.64427 3.87242 3.75621C3.76048 3.86815 3.6976 4.01998 3.6976 4.17828V6.56587C3.6976 7.04079 3.50893 7.49626 3.17311 7.83208C2.83729 8.1679 2.38182 8.35657 1.9069 8.35657C1.43198 8.35657 0.976512 8.1679 0.640692 7.83208C0.304872 7.49626 0.116211 7.04079 0.116211 6.56587V4.17828ZM1.9069 14.3255C2.38182 14.3255 2.83729 14.5142 3.17311 14.85C3.50893 15.1858 3.6976 15.6413 3.6976 16.1162V47.1549C3.6976 47.4844 3.96501 47.7518 4.29449 47.7518H18.62C19.095 47.7518 19.5504 47.9405 19.8862 48.2763C20.2221 48.6121 20.4107 49.0676 20.4107 49.5425C20.4107 50.0174 20.2221 50.4729 19.8862 50.8087C19.5504 51.1445 19.095 51.3332 18.62 51.3332H4.29449C3.18634 51.3332 2.12358 50.893 1.34 50.1094C0.556422 49.3258 0.116211 48.2631 0.116211 47.1549V16.1162C0.116211 15.6413 0.304872 15.1858 0.640692 14.85C0.976512 14.5142 1.43198 14.3255 1.9069 14.3255ZM38.9862 34.5484C39.3215 34.8842 39.5099 35.3393 39.5099 35.8139C39.5099 36.2884 39.3215 36.7435 38.9862 37.0793L33.0172 43.0483C32.6814 43.3836 32.2263 43.5719 31.7518 43.5719C31.2772 43.5719 30.8221 43.3836 30.4864 43.0483L26.905 39.4669C26.5887 39.1274 26.4165 38.6784 26.4246 38.2145C26.4328 37.7506 26.6208 37.308 26.9489 36.9799C27.2769 36.6518 27.7196 36.4639 28.1835 36.4557C28.6474 36.4475 29.0964 36.6197 29.4358 36.936L31.7518 39.252L36.4553 34.5484C36.7911 34.2131 37.2462 34.0247 37.7208 34.0247C38.1953 34.0247 38.6504 34.2131 38.9862 34.5484Z" fill="#227ADE"/>
<path fill-rule="evenodd" clip-rule="evenodd" d="M32.9457 29.8448C30.5711 29.8448 28.2937 30.7881 26.6146 32.4672C24.9355 34.1463 23.9922 36.4237 23.9922 38.7983C23.9922 41.1729 24.9355 43.4502 26.6146 45.1293C28.2937 46.8084 30.5711 47.7517 32.9457 47.7517C35.3203 47.7517 37.5977 46.8084 39.2768 45.1293C40.9559 43.4502 41.8992 41.1729 41.8992 38.7983C41.8992 36.4237 40.9559 34.1463 39.2768 32.4672C37.5977 30.7881 35.3203 29.8448 32.9457 29.8448ZM20.4109 38.7983C20.4109 35.4738 21.7315 32.2855 24.0822 29.9348C26.433 27.5841 29.6213 26.2634 32.9457 26.2634C36.2701 26.2634 39.4584 27.5841 41.8092 29.9348C44.1599 32.2855 45.4805 35.4738 45.4805 38.7983C45.4805 42.1227 44.1599 45.311 41.8092 47.6618C39.4584 50.0125 36.2701 51.3331 32.9457 51.3331C29.6213 51.3331 26.433 50.0125 24.0822 47.6618C21.7315 45.311 20.4109 42.1227 20.4109 38.7983ZM8.4729 11.341C8.4729 10.8661 8.66156 10.4106 8.99738 10.0748C9.3332 9.73895 9.78867 9.55029 10.2636 9.55029H24.5891C25.0641 9.55029 25.5195 9.73895 25.8553 10.0748C26.1912 10.4106 26.3798 10.8661 26.3798 11.341C26.3798 11.8159 26.1912 12.2714 25.8553 12.6072C25.5195 12.943 25.0641 13.1317 24.5891 13.1317H10.2636C9.78867 13.1317 9.3332 12.943 8.99738 12.6072C8.66156 12.2714 8.4729 11.8159 8.4729 11.341ZM8.4729 20.8913C8.4729 20.4164 8.66156 19.961 8.99738 19.6251C9.3332 19.2893 9.78867 19.1007 10.2636 19.1007H24.5891C25.0641 19.1007 25.5195 19.2893 25.8553 19.6251C26.1912 19.961 26.3798 20.4164 26.3798 20.8913C26.3798 21.3663 26.1912 21.8217 25.8553 22.1576C25.5195 22.4934 25.0641 22.682 24.5891 22.682H10.2636C9.78867 22.682 9.3332 22.4934 8.99738 22.1576C8.66156 21.8217 8.4729 21.3663 8.4729 20.8913Z" fill="#333333"/>
</svg>
