<svg width="58" height="50" viewBox="-9 0 58 50" fill="none" xmlns="http://www.w3.org/2000/svg">
<g clip-path="url(#clip0_285_1374)">
<path fill-rule="evenodd" clip-rule="evenodd" d="M20.0001 12.7855C19.2423 12.7855 18.5156 13.0918 17.9798 13.637C17.4439 14.1823 17.1429 14.9218 17.1429 15.6929C17.1429 16.464 17.4439 17.2035 17.9798 17.7487C18.5156 18.2939 19.2423 18.6003 20.0001 18.6003C20.7578 18.6003 21.4846 18.2939 22.0204 17.7487C22.5562 17.2035 22.8572 16.464 22.8572 15.6929C22.8572 14.9218 22.5562 14.1823 22.0204 13.637C21.4846 13.0918 20.7578 12.7855 20.0001 12.7855ZM13.7144 15.6929C13.7144 13.9965 14.3766 12.3696 15.5554 11.17C16.7342 9.97052 18.333 9.29663 20.0001 9.29663C21.6671 9.29663 23.2659 9.97052 24.4447 11.17C25.6235 12.3696 26.2858 13.9965 26.2858 15.6929C26.2858 17.3893 25.6235 19.0162 24.4447 20.2157C23.2659 21.4152 21.6671 22.0891 20.0001 22.0891C18.333 22.0891 16.7342 21.4152 15.5554 20.2157C14.3766 19.0162 13.7144 17.3893 13.7144 15.6929Z" fill="#227ADE"/>
<path fill-rule="evenodd" clip-rule="evenodd" d="M19.9999 24.4149C18.6359 24.4149 17.3278 24.9662 16.3633 25.9477C15.3989 26.9291 14.857 28.2602 14.857 29.6482C14.857 30.1108 14.6764 30.5545 14.3549 30.8817C14.0334 31.2088 13.5974 31.3926 13.1428 31.3926C12.6881 31.3926 12.2521 31.2088 11.9306 30.8817C11.6091 30.5545 11.4285 30.1108 11.4285 29.6482C11.4285 27.3349 12.3315 25.1164 13.939 23.4807C15.5464 21.845 17.7266 20.926 19.9999 20.926C22.2732 20.926 24.4534 21.845 26.0608 23.4807C27.6683 25.1164 28.5713 27.3349 28.5713 29.6482C28.5713 30.1108 28.3907 30.5545 28.0692 30.8817C27.7477 31.2088 27.3117 31.3926 26.857 31.3926C26.4024 31.3926 25.9663 31.2088 25.6449 30.8817C25.3234 30.5545 25.1428 30.1108 25.1428 29.6482C25.1428 28.2602 24.6009 26.9291 23.6364 25.9477C22.672 24.9662 21.3639 24.4149 19.9999 24.4149Z" fill="#227ADE"/>
<path fill-rule="evenodd" clip-rule="evenodd" d="M20 3.48178C15.605 3.48178 11.39 5.25839 8.28223 8.42078C5.17449 11.5832 3.42857 15.8723 3.42857 20.3446C3.42857 25.5523 6.29486 30.967 9.92 35.677C10.0668 35.8563 10.1768 36.0639 10.2433 36.2873C10.3099 36.5106 10.3317 36.7453 10.3075 36.9775C10.2833 37.2096 10.2135 37.4344 10.1024 37.6386C9.99121 37.8428 9.84091 38.0222 9.66037 38.1663C9.47983 38.3103 9.27272 38.4159 9.05132 38.477C8.82991 38.5381 8.59871 38.5533 8.37141 38.5218C8.14411 38.4903 7.92534 38.4127 7.72805 38.2936C7.53076 38.1745 7.35897 38.0163 7.22286 37.8284C3.45829 32.937 0 26.7455 0 20.3446C0 14.947 2.10714 9.77047 5.85786 5.95379C9.60859 2.13711 14.6957 -0.00708008 20 -0.00708008C25.3043 -0.00708008 30.3914 2.13711 34.1421 5.95379C37.8929 9.77047 40 14.947 40 20.3446C40 28.0108 35.0354 35.4141 30.4229 40.6916C27.6214 43.8818 24.5548 46.8202 21.2571 49.4742L21.0926 49.6022L21.0469 49.6371L21.0354 49.6464L21.0309 49.6487C21.0309 49.6487 21.0286 49.651 20 48.2555L18.9714 49.651L18.9669 49.6464L18.9554 49.6394L18.9211 49.6115L18.8914 49.5882C18.5976 49.5923 18.3058 49.5375 18.0327 49.4269C17.7597 49.3163 17.5107 49.152 17.3001 48.9435C17.0894 48.7349 16.9212 48.4862 16.805 48.2116C16.6888 47.9369 16.6269 47.6416 16.6229 47.3425C16.6188 47.0435 16.6727 46.7466 16.7814 46.4688C16.8901 46.1909 17.0515 45.9376 17.2565 45.7232C17.4614 45.5089 17.7058 45.3377 17.9757 45.2194C18.2457 45.1012 18.5359 45.0382 18.8297 45.0341C19.2808 45.4279 19.6709 45.7605 20 46.0319C22.8124 43.6913 25.4413 41.1313 27.8629 38.375C32.3931 33.1882 36.5714 26.6338 36.5714 20.3446C36.5714 18.1301 36.1428 15.9374 35.31 13.8915C34.4772 11.8456 33.2566 9.98664 31.7178 8.42078C30.179 6.85493 28.3522 5.61282 26.3416 4.76538C24.3311 3.91795 22.1762 3.48178 20 3.48178ZM20 48.2555L18.9714 49.651C19.5817 50.1162 20.4183 50.1162 21.0286 49.651L20 48.2555Z" fill="#333333"/>
</g>
<defs>
<clipPath id="clip0_285_1374">
<rect width="40" height="50" fill="white"/>
</clipPath>
</defs>
</svg>
