<svg width="48" height="47" viewBox="-3.5 0 48 47" fill="none" xmlns="http://www.w3.org/2000/svg">
<path d="M4.73077 20.3667V18.8H3.15385V20.3667H4.73077ZM17.3462 20.3667V18.8H15.7692V20.3667H17.3462ZM17.3462 32.9H15.7692V34.4667H17.3462V32.9ZM39.4231 10.9667H41V10.3181L40.5395 9.85747L39.4231 10.9667ZM29.9615 1.56667L31.078 0.457467L30.6144 0H29.9615V1.56667ZM4.73077 21.9333H7.88462V18.8H4.73077V21.9333ZM6.30769 34.4667V26.6333H3.15385V34.4667H6.30769ZM6.30769 26.6333V20.3667H3.15385V26.6333H6.30769ZM7.88462 25.0667H4.73077V28.2H7.88462V25.0667ZM9.46154 23.5C9.46154 23.9155 9.2954 24.314 8.99967 24.6078C8.70394 24.9016 8.30284 25.0667 7.88462 25.0667V28.2C9.13929 28.2 10.3426 27.7048 11.2298 26.8234C12.117 25.942 12.6154 24.7465 12.6154 23.5H9.46154ZM7.88462 21.9333C8.30284 21.9333 8.70394 22.0984 8.99967 22.3922C9.2954 22.686 9.46154 23.0845 9.46154 23.5H12.6154C12.6154 22.2535 12.117 21.058 11.2298 20.1766C10.3426 19.2952 9.13929 18.8 7.88462 18.8V21.9333ZM15.7692 20.3667V32.9H18.9231V20.3667H15.7692ZM17.3462 34.4667H20.5V31.3333H17.3462V34.4667ZM25.2308 29.7667V23.5H22.0769V29.7667H25.2308ZM20.5 18.8H17.3462V21.9333H20.5V18.8ZM25.2308 23.5C25.2308 22.2535 24.7324 21.058 23.8452 20.1766C22.958 19.2952 21.7547 18.8 20.5 18.8V21.9333C20.9182 21.9333 21.3193 22.0984 21.6151 22.3922C21.9108 22.686 22.0769 23.0845 22.0769 23.5H25.2308ZM20.5 34.4667C21.7547 34.4667 22.958 33.9715 23.8452 33.0901C24.7324 32.2086 25.2308 31.0132 25.2308 29.7667H22.0769C22.0769 30.1822 21.9108 30.5807 21.6151 30.8745C21.3193 31.1683 20.9182 31.3333 20.5 31.3333V34.4667ZM28.3846 18.8V34.4667H31.5385V18.8H28.3846ZM29.9615 21.9333H37.8462V18.8H29.9615V21.9333ZM29.9615 28.2H34.6923V25.0667H29.9615V28.2ZM3.15385 15.6667V4.7H0V15.6667H3.15385ZM37.8462 10.9667V15.6667H41V10.9667H37.8462ZM4.73077 3.13333H29.9615V0H4.73077V3.13333ZM28.8451 2.67587L38.3066 12.0759L40.5395 9.85747L31.078 0.457467L28.8451 2.67587ZM3.15385 4.7C3.15385 4.28449 3.31999 3.88601 3.61572 3.5922C3.91145 3.29839 4.31254 3.13333 4.73077 3.13333V0C3.47609 0 2.2728 0.495177 1.38561 1.3766C0.498419 2.25802 0 3.45348 0 4.7H3.15385ZM0 37.6V42.3H3.15385V37.6H0ZM4.73077 47H36.2692V43.8667H4.73077V47ZM41 42.3V37.6H37.8462V42.3H41ZM36.2692 47C37.5239 47 38.7272 46.5048 39.6144 45.6234C40.5016 44.742 41 43.5465 41 42.3H37.8462C37.8462 42.7155 37.68 43.114 37.3843 43.4078C37.0886 43.7016 36.6875 43.8667 36.2692 43.8667V47ZM0 42.3C0 43.5465 0.498419 44.742 1.38561 45.6234C2.2728 46.5048 3.47609 47 4.73077 47V43.8667C4.31254 43.8667 3.91145 43.7016 3.61572 43.4078C3.31999 43.114 3.15385 42.7155 3.15385 42.3H0Z" fill="#227ADE"/>
</svg>
