<svg width="96" height="75" viewBox="-17 0 96 75" fill="none" xmlns="http://www.w3.org/2000/svg">
<path d="M24.5072 70.2631C26.5946 71.9512 28.7714 73.4942 31 75C33.2334 73.5141 35.3997 71.9337 37.4928 70.2631C40.982 67.4548 44.2657 64.4098 47.3198 61.1506C54.3602 53.6047 62 42.6657 62 30.3862C62 26.3959 61.1982 22.4446 59.6403 18.7579C58.0824 15.0713 55.7989 11.7215 52.9203 8.89992C50.0417 6.0783 46.6243 3.84007 42.8632 2.31301C39.1021 0.785963 35.071 0 31 0C26.929 0 22.8979 0.785963 19.1368 2.31301C15.3757 3.84007 11.9583 6.0783 9.07969 8.89992C6.20107 11.7215 3.91763 15.0713 2.35973 18.7579C0.801838 22.4446 -6.06623e-08 26.3959 0 30.3862C0 42.6657 7.63978 53.6013 14.6802 61.1506C17.7341 64.411 21.0179 67.4537 24.5072 70.2631ZM31 41.3591C28.031 41.3591 25.1837 40.203 23.0843 38.1452C20.985 36.0874 19.8056 33.2964 19.8056 30.3862C19.8056 27.4761 20.985 24.6851 23.0843 22.6273C25.1837 20.5695 28.031 19.4134 31 19.4134C33.969 19.4134 36.8163 20.5695 38.9157 22.6273C41.015 24.6851 42.1944 27.4761 42.1944 30.3862C42.1944 33.2964 41.015 36.0874 38.9157 38.1452C36.8163 40.203 33.969 41.3591 31 41.3591Z" fill="#227ADE"/>
</svg>
