<svg width="96" height="96" viewBox="-14.5 -14.5 96 96" fill="none" xmlns="http://www.w3.org/2000/svg">
<path d="M60.3 0H6.7C3.015 0 0.0335 3.015 0.0335 6.7L0 67L13.4 53.6H60.3C63.985 53.6 67 50.585 67 46.9V6.7C67 3.015 63.985 0 60.3 0ZM50.25 40.2H16.75C14.9075 40.2 13.4 38.6925 13.4 36.85C13.4 35.0075 14.9075 33.5 16.75 33.5H50.25C52.0925 33.5 53.6 35.0075 53.6 36.85C53.6 38.6925 52.0925 40.2 50.25 40.2ZM50.25 30.15H16.75C14.9075 30.15 13.4 28.6425 13.4 26.8C13.4 24.9575 14.9075 23.45 16.75 23.45H50.25C52.0925 23.45 53.6 24.9575 53.6 26.8C53.6 28.6425 52.0925 30.15 50.25 30.15ZM50.25 20.1H16.75C14.9075 20.1 13.4 18.5925 13.4 16.75C13.4 14.9075 14.9075 13.4 16.75 13.4H50.25C52.0925 13.4 53.6 14.9075 53.6 16.75C53.6 18.5925 52.0925 20.1 50.25 20.1Z" fill="#227ADE"/>
</svg>
