<svg width="24" height="24" viewBox="0.5 0 24 24" fill="none" xmlns="http://www.w3.org/2000/svg">
<path d="M11.929 2.92682C12.2283 2.00551 13.5317 2.00551 13.8311 2.92682L15.3497 7.60057C15.4836 8.01262 15.8675 8.29157 16.3007 8.29157H21.215C22.1837 8.29157 22.5865 9.53117 21.8028 10.1006L17.8271 12.9891C17.4766 13.2438 17.3299 13.6951 17.4638 14.1072L18.9824 18.7809C19.2817 19.7022 18.2273 20.4684 17.4435 19.899L13.4678 17.0104C13.1173 16.7558 12.6427 16.7558 12.2922 17.0104L8.3165 19.899C7.53275 20.4684 6.4783 19.7022 6.77765 18.7809L8.29625 14.1072C8.4301 13.6951 8.28345 13.2438 7.93295 12.9891L3.95722 10.1006C3.17351 9.53117 3.57629 8.29157 4.54501 8.29157H9.4593C9.8925 8.29157 10.2765 8.01262 10.4104 7.60057L11.929 2.92682Z" fill="#FFB800"/>
</svg>
