<svg width="96" height="96" viewBox="-15.5 -15.5 96 96" fill="none" xmlns="http://www.w3.org/2000/svg">
<path d="M32.5 0C14.5503 0 0 14.5503 0 32.5C0 50.4497 14.5503 65 32.5 65C50.4497 65 65 50.4497 65 32.5C65 14.5503 50.4497 0 32.5 0ZM32.5 13C33.362 13 34.1886 13.3424 34.7981 13.9519C35.4076 14.5614 35.75 15.388 35.75 16.25V32.5C35.7498 33.3619 35.4073 34.1884 34.7977 34.7977L25.0477 44.5477C24.4348 45.1398 23.6138 45.4673 22.7617 45.4599C21.9096 45.4525 21.0944 45.1107 20.4918 44.5082C19.8893 43.9056 19.5475 43.0904 19.5401 42.2383C19.5327 41.3862 19.8602 40.5652 20.4523 39.9523L29.25 31.1545V16.25C29.25 15.388 29.5924 14.5614 30.2019 13.9519C30.8114 13.3424 31.638 13 32.5 13Z" fill="#227ADE"/>
</svg>
