<svg width="32" height="21" viewBox="-3.5 0 32 21" fill="none" xmlns="http://www.w3.org/2000/svg">
<path fill-rule="evenodd" clip-rule="evenodd" d="M21.8304 0.142329C22.1298 0.0163042 22.4575 -0.0271607 22.7794 0.0164572C23.1014 0.0600752 23.4057 0.189182 23.6608 0.390339C23.9159 0.591496 24.1124 0.85735 24.2299 1.16023C24.3474 1.46311 24.3815 1.79194 24.3288 2.1125L21.5808 18.7814C21.3142 20.3893 19.55 21.3114 18.0754 20.5105C16.8419 19.8404 15.0099 18.8081 13.362 17.7309C12.5381 17.1917 10.0142 15.4651 10.3244 14.2364C10.5909 13.1859 14.8318 9.23832 17.2551 6.89132C18.2063 5.96924 17.7725 5.43732 16.6493 6.28548C13.86 8.39136 9.38169 11.5938 7.90103 12.4953C6.59485 13.2901 5.91389 13.4258 5.09965 13.2901C3.61415 13.043 2.23648 12.6601 1.11205 12.1936C-0.407378 11.5635 -0.333467 9.47459 1.11084 8.86634L21.8304 0.142329Z" fill="#227ADE"/>
</svg>
