<svg width="32" height="32" viewBox="-3.5 -3.5 32 32" fill="none" xmlns="http://www.w3.org/2000/svg">
<path d="M12.4697 0C19.1618 0 24.5864 5.42464 24.5864 12.1167C24.5864 18.8087 19.1618 24.2334 12.4697 24.2334C10.3284 24.237 8.22474 23.6704 6.37503 22.5915L0.357893 24.2334L1.99607 18.2138C0.916421 16.3635 0.349293 14.2589 0.353046 12.1167C0.353046 5.42464 5.77768 0 12.4697 0ZM8.34036 6.42184L8.09803 6.43153C7.94135 6.44233 7.78826 6.48348 7.64729 6.5527C7.51591 6.62723 7.39594 6.72027 7.29106 6.82896C7.14566 6.96588 7.06326 7.08462 6.97481 7.19973C6.52664 7.78242 6.28534 8.49781 6.28901 9.23291C6.29143 9.82663 6.44652 10.4046 6.68886 10.945C7.18443 12.0379 7.99988 13.1951 9.07584 14.2674C9.33514 14.5255 9.58959 14.7848 9.86343 15.0259C11.2004 16.2029 12.7936 17.0518 14.5162 17.505L15.2045 17.6104C15.4286 17.6225 15.6528 17.6055 15.8781 17.5946C16.231 17.576 16.5755 17.4805 16.8875 17.3147C17.046 17.2328 17.2008 17.1438 17.3515 17.0482C17.3515 17.0482 17.4028 17.0134 17.503 16.9391C17.6666 16.8179 17.7671 16.7319 17.9028 16.5902C18.0046 16.4851 18.0894 16.3632 18.1573 16.2242C18.2518 16.0267 18.3463 15.6499 18.3851 15.3361C18.4142 15.0962 18.4057 14.9653 18.402 14.8841C18.3972 14.7545 18.2894 14.62 18.1718 14.563L17.4666 14.2468C17.4666 14.2468 16.4125 13.7876 15.7679 13.4943C15.7004 13.465 15.6281 13.4481 15.5546 13.4447C15.4717 13.436 15.3879 13.4452 15.3089 13.4718C15.2299 13.4983 15.1575 13.5416 15.0966 13.5985C15.0906 13.5961 15.0094 13.6652 14.1333 14.7266C14.0831 14.7942 14.0138 14.8452 13.9344 14.8733C13.855 14.9013 13.769 14.9051 13.6874 14.8841C13.6085 14.8631 13.5311 14.8364 13.456 14.8042C13.3058 14.7412 13.2537 14.7169 13.1507 14.6733C12.455 14.3703 11.8111 13.9602 11.2423 13.458C11.0896 13.3247 10.9479 13.1793 10.8025 13.0388C10.3258 12.5822 9.91038 12.0658 9.56657 11.5024L9.49508 11.3873C9.44451 11.3095 9.40304 11.2261 9.37149 11.1389C9.32545 10.9607 9.4454 10.8178 9.4454 10.8178C9.4454 10.8178 9.73984 10.4955 9.87675 10.321C10.01 10.1514 10.1227 9.98657 10.1954 9.86903C10.3384 9.63882 10.3832 9.40254 10.3081 9.21958C9.96884 8.3908 9.61827 7.56646 9.25638 6.74657C9.18489 6.5842 8.97285 6.46788 8.7802 6.44486C8.71477 6.43678 8.64933 6.43032 8.5839 6.42547C8.42121 6.41614 8.25808 6.41776 8.0956 6.43032L8.34036 6.42184Z" fill="#227ADE"/>
</svg>
