<svg width="196" height="48" viewBox="0 0 196 48" fill="none" xmlns="http://www.w3.org/2000/svg">
<path d="M14.9116 48C14.1711 45.5988 13.3745 43.0406 12.5217 40.3254C11.6915 37.6101 10.9173 35.0967 10.1992 32.7854L5.52034 17.7391C4.98177 16.0337 4.39828 14.1711 3.76999 12.1515C3.1417 10.1094 2.50214 8.05614 1.85133 5.99158C1.20052 3.90463 0.58349 1.90739 0 0H12.2861C13.094 3.02945 13.9467 6.27213 14.8443 9.72791C15.7644 13.1613 16.6171 16.3927 17.4025 19.4222L21.9467 36.7574H22.7546L27.5344 19.3212C28.3871 16.2468 29.2623 13.0491 30.1599 9.72791C31.08 6.38425 31.9663 3.14169 32.8191 0H44.7686C44.1627 1.92991 43.5344 3.92703 42.8836 5.99158C42.2553 8.05614 41.6269 10.0869 40.9986 12.0842C40.3703 14.0589 39.7868 15.9327 39.2482 17.7055L34.5021 32.8191C33.7616 35.1753 32.9761 37.6886 32.1459 40.359C31.3156 43.0295 30.5189 45.5764 29.756 48H14.9116Z" fill="#4E6EAC"/>
<path d="M36.0088 48C35.2683 45.5988 34.4717 43.0406 33.6189 40.3254C32.7886 37.6101 32.0145 35.0967 31.2963 32.7854L26.6175 17.7391C26.0789 16.0337 25.4954 14.1711 24.8672 12.1515C24.2389 10.1094 23.5993 8.05614 22.9485 5.99158C22.2977 3.90463 21.6807 1.90739 21.0972 0H33.3833C34.1911 3.02945 35.0439 6.27213 35.9415 9.72791C36.8616 13.1613 37.7142 16.3927 38.4997 19.4222L43.0439 36.7574H43.8517L48.6315 19.3212C49.4843 16.2468 50.3595 13.0491 51.2571 9.72791C52.1771 6.38425 53.0635 3.14169 53.9162 0H65.8657C65.2599 1.92991 64.6316 3.92703 63.9808 5.99158C63.3525 8.05614 62.7241 10.0869 62.0958 12.0842C61.4675 14.0589 60.884 15.9327 60.3454 17.7055L55.5993 32.8191C54.8587 35.1753 54.0733 37.6886 53.243 40.359C52.4128 43.0295 51.6161 45.5764 50.8531 48H36.0088Z" fill="#253451"/>
<path d="M93.2943 11.1898L84.974 36.5064H83.3384L75.0181 11.1898H77.0448L84.1562 33.1284L91.2676 11.1898H93.2943ZM98.9187 36.5064H97.1053V19.3679H98.9187V36.5064ZM99.1321 13.4299H96.892V11.1898H99.1321V13.4299ZM117.164 19.3679L110.906 36.5064H109.128L102.87 19.3679H104.861L110.017 34.3729L115.172 19.3679H117.164ZM132.802 36.5064H130.988V34.7996C129.53 36.2575 128.179 36.7197 125.761 36.7197C123.201 36.7197 121.815 36.293 120.712 35.1552C119.895 34.3374 119.468 33.0929 119.468 31.8128C119.468 28.6838 121.708 26.8704 125.441 26.8704H130.988V24.9503C130.988 22.2125 129.673 20.7546 126.153 20.7546C123.735 20.7546 122.526 21.3591 121.423 22.9236L120.108 21.7858C121.566 19.759 123.344 19.1546 126.153 19.1546C130.704 19.1546 132.802 21.1813 132.802 24.7726V36.5064ZM130.988 30.5328V28.3283H125.655C122.739 28.3283 121.281 29.4661 121.281 31.7773C121.281 34.0529 122.632 35.1196 125.761 35.1196C127.326 35.1196 128.784 34.9774 130.028 33.804C130.668 33.1996 130.988 32.0973 130.988 30.5328Z" fill="#253451"/>
<path d="M154.755 11.1898L146.435 36.5064H144.799L136.479 11.1898H138.506L145.617 33.1284L152.728 11.1898H154.755ZM160.38 36.5064H158.566V19.3679H160.38V36.5064ZM160.593 13.4299H158.353V11.1898H160.593V13.4299ZM177.984 36.5064H165.753V34.7996L176.064 20.968H166.322V19.3679H177.984V21.0746L167.637 34.9063H177.984V36.5064ZM195.235 36.5064H193.422V34.7996C191.964 36.2575 190.613 36.7197 188.195 36.7197C185.635 36.7197 184.248 36.293 183.146 35.1552C182.328 34.3374 181.901 33.0929 181.901 31.8128C181.901 28.6838 184.141 26.8704 187.875 26.8704H193.422V24.9503C193.422 22.2125 192.106 20.7546 188.586 20.7546C186.168 20.7546 184.959 21.3591 183.857 22.9236L182.541 21.7858C183.999 19.759 185.777 19.1546 188.586 19.1546C193.137 19.1546 195.235 21.1813 195.235 24.7726V36.5064ZM193.422 30.5328V28.3283H188.088C185.172 28.3283 183.715 29.4661 183.715 31.7773C183.715 34.0529 185.066 35.1196 188.195 35.1196C189.759 35.1196 191.217 34.9774 192.462 33.804C193.102 33.1996 193.422 32.0973 193.422 30.5328Z" fill="#4A6BAA"/>
</svg>
