<svg width="53" height="64" viewBox="0 0 53 64" fill="none" xmlns="http://www.w3.org/2000/svg">
<path d="M48.3332 0H4.66678C2.09449 0 0 2.048 0 4.57229V59.4277C0 61.952 2.0938 64 4.66678 64H48.3332C50.9055 64 53 61.952 53 59.4277V4.57229C53 2.048 50.9062 0 48.3332 0ZM39.3697 57.8277H13.6303C13.1585 57.815 12.7103 57.6221 12.3812 57.29C12.052 56.958 11.8679 56.5131 11.8679 56.0499C11.8679 55.5866 12.052 55.1417 12.3812 54.8097C12.7103 54.4777 13.1585 54.2847 13.6303 54.272H39.3697C39.8415 54.2847 40.2897 54.4777 40.6188 54.8097C40.948 55.1417 41.1322 55.5866 41.1322 56.0499C41.1322 56.5131 40.948 56.958 40.6188 57.29C40.2897 57.6221 39.8415 57.815 39.3697 57.8277ZM19.9708 46.9403C19.9709 46.4687 20.162 46.0165 20.5018 45.6831C20.8417 45.3497 21.3026 45.1624 21.7831 45.1624H31.2176C31.6894 45.1752 32.1376 45.3681 32.4667 45.7001C32.7959 46.0321 32.98 46.4771 32.98 46.9403C32.98 47.4035 32.7959 47.8485 32.4667 48.1805C32.1376 48.5125 31.6894 48.7054 31.2176 48.7182H21.7824C21.302 48.718 20.8413 48.5306 20.5016 48.1972C20.1619 47.8639 19.9709 47.4118 19.9708 46.9403ZM26.5 39.0333C17.268 39.0333 9.76124 31.6659 9.76124 22.6061C9.76124 13.5464 17.268 6.17229 26.5 6.17229C35.732 6.17229 43.2388 13.5464 43.2388 22.6061C43.2388 31.6659 35.732 39.0333 26.5 39.0333Z" fill="#227ADE"/>
<path d="M19.3203 24.2294C19.495 27.7574 20.1916 31.1822 21.3895 33.7847C17.4699 32.0168 14.6168 28.4612 14 24.2294H19.3203ZM21.3888 11.2153C20.1916 13.825 19.495 17.2498 19.3203 20.7778H14C14.6168 16.5381 17.4692 12.9891 21.3888 11.2153ZM22.9566 24.2294H31.0434C30.6872 30.9467 28.3354 35 27 35C25.6646 35 23.3128 30.9474 22.9566 24.2294ZM31.0434 20.7772H22.9566C23.3135 14.0526 25.6653 10 27 10C28.3354 10 30.6872 14.0526 31.0434 20.7772ZM34.6797 24.2294H40C39.3832 28.4612 36.5301 32.0168 32.6105 33.7847C33.8084 31.1815 34.505 27.7574 34.6797 24.2294ZM40 20.7772H34.6797C34.505 17.2498 33.8084 13.8244 32.6105 11.2146C36.5301 12.9891 39.3832 16.5381 40 20.7772Z" fill="#227ADE"/>
</svg>
